<?xml version="1.0" encoding="utf-8"?>
<!-- Generator: Adobe Illustrator 17.1.0, SVG Export Plug-In . SVG Version: 6.00 Build 0)  -->
<!DOCTYPE svg PUBLIC "-//W3C//DTD SVG 1.1//EN" "http://www.w3.org/Graphics/SVG/1.1/DTD/svg11.dtd">
<svg version="1.1" id="Layer_1" xmlns="http://www.w3.org/2000/svg" xmlns:xlink="http://www.w3.org/1999/xlink" x="0px" y="0px"
	 width="792px" height="612px" viewBox="0 0 792 612" enable-background="new 0 0 792 612" xml:space="preserve">
<g>
	<path fill="#9C262D" d="M214,284.1c0.1-0.8,0.6-1.2,1.4-1.3c5-0.1,9.2-3.1,14-3.7c2.2,0.3,4-0.9,5.9-1.3c5.1-1.2-0.1-2.3,0.2-3.3
		c21.7-8.1,43.9-14.1,66.5-19.1c2.1-0.2,4.4,0.8,6.2-1.1c1.8-0.4,3.7-0.8,5.5-1.3c2.2-0.2,4.6,0.8,6.4-1.2c0,0-0.1,0.1-0.1,0.1
		c2.4-0.3,5,0.9,7.2-1.1c2-0.3,4.3,0.7,6-1.3c0,0-0.1,0-0.1,0c2.4-0.3,5.1,0.9,7.2-1.2c0,0-0.1,0-0.1,0c2,0,4,0,6-0.1
		c3.9-1.1,8.1-0.4,11.9-2.2c2.4-0.5,5.1,0.8,7.2-1.3c0,0-0.1,0-0.1,0c3.3-0.4,6.7,1.1,9.7-1.3c15.7-2.6,31.6-3.2,47.4-4.7
		c2.1-0.1,4.2,0.6,6.1-0.9c0.7,0,1.4-0.1,2.1-0.1c0.5,0.8,1,0.7,1.5-0.1c21.9-1.2,43.7-3.7,65.6-3.8c3.1,0,6.1-1.5,9.4-0.8
		c2.3,1.5,4.6,1.5,6.9,0c0.9-0.1,1.7-0.2,2.6-0.3c0.9,0.1,1.7,0.3,2.6,0.4c4.4,1.4,8.7,1.8,13.1-0.3c0.3-0.2,0.7-0.3,1.1-0.3
		c1,0.3,1.9,0.1,2.6-0.6c0.6,0,1.1-0.1,1.7-0.1c0.5,0,1.1,0.1,1.6,0.1c4.7,1.8,9.6,0.7,14.4,0.7c17.1-0.1,34,1,51,2.6
		c3.4,2.3,7.3,0.7,10.9,1.2c3.5-0.2,7,0,10.4,1.1c2.7,2.2,5.8,0.9,8.7,1.2c0.3,0,0.6,0,0.9,0.1c1.9,1.9,4.2,1,6.4,1.1
		c0.3-0.1,0.5-0.1,0.8,0c2.2,2.1,4.9,0.9,7.5,1.2c2.2,0.6,4.4,1.5,6.8,1.2c1.8,2,4.2,1.1,6.4,1.2c0.2-0.1,0.5-0.1,0.7,0
		c1.8,1.9,4.2,1,6.3,1.2c8.3-0.3,15.6,4,23.6,4.9c-2.2,2.1-5,0.7-7.5,1.2c-2.2-0.2-4.6,0.5-6.6-1.2c-6.7-2.6-13.6-0.7-20.4-1.1
		c-1.7,0-3.4-0.6-4.8,1c-3.4,1.8-6.7,3.6-10.7,3.7c-1.7-1.9-4-0.9-6.1-1.3c-2.8-1.8-5.5-1.7-8.3,0c-3.6,3.2-8.1,3.4-12.5,3.5
		c-3.9,0.1-7.7,0.3-11.1,2.5c-3.3,0-6.6,0.1-9.9,0.1c-12.1-2.1-24.3-3.3-36.6-3.6c-2.8,0.3-5.9-1-8.4,1.1
		c-12.6,0.8-25.2,1.7-37.8,2.5c-2.9,0.2-6.1-1.1-8.7,1.1c-22.3,2.6-44.6,5.3-66.9,7.9c-1.8,0.2-3.5,0.3-5.3,0.4
		c-2.9,0.3-6.1-1-8.7,1.2c-1,0-2.1,0.1-3.1,0.1c-2.2,0.1-4.6-0.9-6.4,1.1c-2,0.4-3.9,1.6-6,0.9c-4.5-1.2-8.7,0-12.9,1.3
		c-2.1,0.3-4.4-0.6-6.1,1.3l-0.5,0.1c0,0-0.5,0-0.5,0c-2.8,0.4-5.9-1.1-8.5,1.2c0,0,0.1,0,0.1,0c-2.8,0.4-5.9-1.1-8.4,1.2
		c0,0,0.1,0,0.1,0c-2.8,0.4-5.9-1-8.5,1.2l-0.5,0.1c0,0-0.5,0-0.5,0c-2.9,0.3-6-1-8.7,1.2c-3,0.9-6,1.3-9.1,1.2
		c-2.9,0.3-6.1-1.1-8.7,1.2l-0.4,0.1c0,0-0.4-0.1-0.4-0.1c-2.9,0.4-6-1.1-8.6,1.2c0,0,0.1,0,0.1,0c-2.8,0.5-5.9-1.2-8.3,1.4
		c-6,4.5-13.4,4.4-20.3,5.8c-2.3-0.5-4.4-0.4-6.2,1.3c-16.5,3.8-32.7,9.1-49.5,11.8c-2.2,0.1-4.6-0.8-6.4,1.1
		c-0.3,0.1-0.5,0.1-0.8,0.1c-2.1,0.1-4.4-0.7-6.3,1c-3.1,0.1-6.2,0.2-9.2,0.2c-4.6,0-9.1,0-13.7,0.1c-0.3,0-0.6,0-0.8-0.2
		c0-0.4,0-0.9-0.1-1.3c0,0-0.1-0.1-0.1-0.1c1,0.1,2,0,2.5-1c0,0,0,0,0,0c2.6-0.1,1.3-1.4,0.8-2.5c4.4-1.6,8.8-3.2,13.2-4.8
		c3.1-0.2,6.4,0.9,9.7-1.1c-1.5-1-2.6-1.7-3.6-2.5c-1.4-2.9-4.4-2.6-6.8-3.7C218.2,286.4,214.8,287.6,214,284.1z"/>
</g>
<g>
	<path d="M231.2,223c0,10.8-1.9,20.7-5.6,29.6c-3.7,8.9-9,16.7-15.8,23.2c-6.8,6.5-15,11.6-24.7,15.2c-9.6,3.6-20.3,5.4-31.9,5.4
		c-13.6,0-26.1-1.9-37.5-5.7c-11.3-3.8-22.1-10.4-32.4-19.9l18.4-22.9c7,7.6,14.6,13.4,22.9,17.3c8.2,3.9,17.6,5.9,28,5.9
		c10,0,18.4-1.5,25-4.4c6.6-2.9,11.9-6.7,15.8-11.3c3.9-4.6,6.7-9.9,8.3-15.8c1.6-5.9,2.4-11.9,2.4-17.9v-21.1h-0.9
		c-5.2,8.6-12.3,15-21.2,19.1c-8.9,4.1-18.3,6.2-28.1,6.2c-10.4,0-20.1-1.9-29-5.6c-8.9-3.7-16.6-8.8-23-15.4
		c-6.4-6.5-11.4-14.2-15.1-23.2c-3.6-8.9-5.4-18.6-5.4-29c0-10.4,1.7-20.2,5.1-29.3c3.4-9.1,8.3-17.1,14.6-23.9
		c6.3-6.8,13.9-12.1,22.9-16c8.9-3.8,18.9-5.7,29.9-5.7c9.6,0,19,2.1,28.1,6.3c9.1,4.2,16.3,10.1,21.5,17.8h0.6V81.5h27.1V223z
		 M157.2,103.2c-7.2,0-13.7,1.3-19.6,3.8c-5.8,2.5-10.7,5.9-14.7,10.2c-4,4.3-7.1,9.5-9.3,15.7c-2.2,6.1-3.3,12.8-3.3,20
		c0,14.4,4.2,26,12.6,34.8c8.4,8.7,19.9,13.1,34.3,13.1c14.4,0,25.9-4.4,34.3-13.1c8.4-8.7,12.6-20.3,12.6-34.8
		c0-7.2-1.1-13.9-3.3-20c-2.2-6.1-5.3-11.3-9.3-15.7c-4-4.3-8.9-7.7-14.7-10.2C170.9,104.4,164.4,103.2,157.2,103.2z"/>
	<path d="M237.5,81.5h27.1v22h0.6c1.8-3.8,4.2-7.3,7.2-10.4c3-3.1,6.4-5.8,10.1-8c3.7-2.2,7.8-4,12.2-5.3c4.4-1.3,8.8-2,13.2-2
		c4.4,0,8.4,0.6,12,1.8l-1.2,29.2c-2.2-0.6-4.4-1.1-6.6-1.5c-2.2-0.4-4.4-0.6-6.6-0.6c-13.2,0-23.4,3.7-30.4,11.1
		c-7,7.4-10.5,19-10.5,34.6v71.6h-27.1V81.5z"/>
	<path d="M319.7,98.9c7.6-7,16.5-12.3,26.5-15.8c10-3.5,20.1-5.3,30.1-5.3c10.4,0,19.4,1.3,26.9,3.9c7.5,2.6,13.7,6.1,18.5,10.5
		c4.8,4.4,8.4,9.5,10.7,15.2c2.3,5.7,3.5,11.7,3.5,17.9v72.8c0,5,0.1,9.6,0.3,13.8c0.2,4.2,0.5,8.2,0.9,12H413
		c-0.6-7.2-0.9-14.4-0.9-21.7h-0.6c-6,9.2-13.1,15.8-21.4,19.6c-8.2,3.8-17.8,5.7-28.6,5.7c-6.6,0-12.9-0.9-19-2.7
		c-6-1.8-11.3-4.5-15.8-8.1c-4.5-3.6-8.1-8.1-10.7-13.4c-2.6-5.3-3.9-11.5-3.9-18.5c0-9.2,2.1-17,6.2-23.2
		c4.1-6.2,9.7-11.3,16.9-15.2c7.1-3.9,15.5-6.7,25-8.4c9.5-1.7,19.7-2.6,30.6-2.6h19.9v-6c0-3.6-0.7-7.2-2.1-10.8
		c-1.4-3.6-3.5-6.9-6.3-9.8c-2.8-2.9-6.3-5.2-10.5-6.9c-4.2-1.7-9.2-2.6-15-2.6c-5.2,0-9.8,0.5-13.7,1.5c-3.9,1-7.5,2.3-10.7,3.8
		c-3.2,1.5-6.1,3.3-8.7,5.3c-2.6,2-5.1,3.9-7.5,5.7L319.7,98.9z M396.2,155.5c-6.4,0-13,0.4-19.7,1.1c-6.7,0.7-12.8,2.1-18.4,4.1
		c-5.5,2-10,4.8-13.5,8.4c-3.5,3.6-5.3,8.2-5.3,13.8c0,8.2,2.8,14.1,8.3,17.8c5.5,3.6,13,5.4,22.4,5.4c7.4,0,13.7-1.3,19-3.8
		c5.2-2.5,9.4-5.8,12.6-9.8c3.2-4,5.5-8.5,6.9-13.4c1.4-4.9,2.1-9.8,2.1-14.6v-9H396.2z"/>
	<path d="M549.6,119.4c-5-5.2-10.3-9.2-15.8-11.9c-5.5-2.7-12.1-4.1-19.7-4.1c-7.4,0-13.9,1.4-19.4,4.1c-5.5,2.7-10.1,6.4-13.8,11.1
		c-3.7,4.7-6.5,10.1-8.4,16.3c-1.9,6.1-2.9,12.5-2.9,19.1s1.1,12.9,3.3,18.8c2.2,5.9,5.3,11.1,9.3,15.5c4,4.4,8.8,7.9,14.4,10.4
		c5.6,2.5,11.9,3.8,19,3.8c7.6,0,14.1-1.4,19.6-4.1s10.4-6.7,15.1-11.9l19.3,19.3c-7,7.8-15.2,13.4-24.5,16.9
		c-9.3,3.4-19.2,5.1-29.6,5.1c-11,0-21.1-1.8-30.3-5.4c-9.1-3.6-17-8.7-23.6-15.2c-6.6-6.5-11.7-14.3-15.4-23.5
		c-3.6-9.1-5.4-19.2-5.4-30.3c0-11,1.8-21.2,5.4-30.4c3.6-9.2,8.7-17.2,15.2-23.8c6.5-6.6,14.3-11.8,23.5-15.5
		c9.1-3.7,19.3-5.6,30.6-5.6c10.4,0,20.4,1.9,29.9,5.6c9.5,3.7,17.8,9.4,24.8,17L549.6,119.4z"/>
	<path d="M586.3,162.8c0,6.2,1.4,11.9,4.1,17c2.7,5.1,6.3,9.5,10.7,13.1c4.4,3.6,9.5,6.4,15.4,8.4c5.8,2,11.8,3,18.1,3
		c8.4,0,15.8-2,22-5.9c6.2-3.9,11.9-9.1,17.2-15.5l20.5,15.7c-15.1,19.5-36.1,29.2-63.2,29.2c-11.2,0-21.4-1.9-30.6-5.7
		c-9.1-3.8-16.9-9.1-23.2-15.8c-6.3-6.7-11.2-14.6-14.6-23.8c-3.4-9.1-5.1-19-5.1-29.6c0-10.6,1.9-20.5,5.6-29.6
		c3.7-9.1,8.8-17.1,15.4-23.8c6.5-6.7,14.3-12,23.3-15.8c9-3.8,18.9-5.7,29.5-5.7c12.6,0,23.3,2.2,32.1,6.6
		c8.7,4.4,15.9,10.2,21.5,17.3c5.6,7.1,9.7,15.2,12.2,24.1c2.5,8.9,3.8,18,3.8,27.2v9.6H586.3z M671.8,141.1
		c-0.2-6-1.2-11.5-2.9-16.6c-1.7-5-4.3-9.4-7.7-13.1c-3.4-3.7-7.7-6.6-12.8-8.7c-5.1-2.1-11.1-3.2-17.9-3.2
		c-6.6,0-12.7,1.3-18.2,3.8c-5.5,2.5-10.2,5.8-14,9.8c-3.8,4-6.8,8.5-8.9,13.4c-2.1,4.9-3.2,9.8-3.2,14.6H671.8z"/>
</g>
</svg>
